<?xml version="1.0" encoding="UTF-8"?>
<!DOCTYPE svg PUBLIC "-//W3C//DTD SVG 1.0//EN" "http://www.w3.org/TR/2001/REC-SVG-20010904/DTD/svg10.dtd">
<!-- Creator: CorelDRAW 2018 (64-Bit) -->
<svg xmlns="http://www.w3.org/2000/svg" xml:space="preserve" width="0.833335in" height="0.833331in" version="1.0" style="shape-rendering:geometricPrecision; text-rendering:geometricPrecision; image-rendering:optimizeQuality; fill-rule:evenodd; clip-rule:evenodd"
viewBox="0 0 833.33 833.33"
 xmlns:xlink="http://www.w3.org/1999/xlink">
 <defs>
  <style type="text/css">
   <![CDATA[
    .fil1 {fill:none}
    .fil0 {fill:#40BE46;fill-rule:nonzero}
   ]]>
  </style>
 </defs>
 <g id="Layer_x0020_1">
  <metadata id="CorelCorpID_0Corel-Layer"/>
  <g id="_1873141013632">
   <path class="fil0" d="M370.14 542.63l-43.85 12.29c4.02,11.16 6.93,31.17 6.93,57.74l0 131.56 49 0 0 -139.26c9.12,-11.16 18.99,-16.55 29.97,-16.55 5.47,0 9.49,1.15 14.27,3.85l13.5 -45.39c-7.67,-3.46 -10.96,-4.24 -18.29,-4.24 -5.46,0 -12.04,1.15 -16.08,3.08 -9.13,4.62 -20.81,14.98 -27.77,25 -0.71,-11.17 -3.3,-19.99 -7.67,-28.07l0 0zm-170.11 -65.02l0 0 -5.33 0 0 266.61 51.19 0 0 -118.12 64.67 0 0 -43.86 -64.67 0 0 -61.18 80.75 0 3.13 -23.29c-48.56,-3.72 -92.65,-11.52 -129.74,-20.18l0 0.01zm-119.9 301.99l0 0 23.76 27.72c23.02,-9.24 51.88,-30.03 59.22,-62.72 2.56,-10.75 3.63,-17.7 3.63,-52.32l0 -214.07 -51.88 0 0 219.85c0,28.84 -1.09,39.61 -5.12,49.24 -4.75,10.78 -16.47,23.86 -29.61,32.31zm466.13 -135.03l0 0c0,46.55 -9.13,66.54 -30.33,66.54 -9.51,0 -20.48,-5.36 -24.85,-16.13 -4.01,-10 -6.21,-26.94 -6.21,-49.63 0,-19.63 1.81,-33.46 5.11,-43.85 4.02,-12.31 13.53,-20.02 25.21,-20.02 8.77,0 16.44,3.85 21.19,10.39 6.57,8.86 9.87,26.17 9.87,52.71l0 -0.01zm29.97 76.57l0 0c16.09,-19.24 23.4,-42.34 23.4,-76.18 0,-31.95 -6.6,-53.48 -21.59,-71.95 -16.06,-19.99 -36.9,-29.61 -63.6,-29.61 -50.42,0 -84.05,41.16 -84.05,103.1 0,61.94 33.24,101.95 84.05,101.95 28.9,0 47.54,-10.39 61.79,-27.3l0 0zm140.35 -110.44l0 0c0,18.09 -10.61,28.1 -29.97,28.1 -17.18,0 -28.9,-8.08 -28.9,-28.1 0,-18.44 10.61,-29.23 29.25,-29.23 18.65,0 29.61,10.78 29.61,29.23l0 0zm86.61 -41.93l0 0 -20.45 -32.68c-11.33,10.78 -25.24,16.93 -38.74,16.93 -6.22,0 -9.52,-0.8 -23.04,-4.23 -13.52,-3.85 -23.02,-5 -33.63,-5 -47.89,0 -78.93,26.15 -78.93,66.56 0,29.23 13.15,47.32 40.2,54.63 -10.97,2.69 -23.04,8.44 -28.51,14.98 -4.02,4.62 -5.86,10.78 -5.86,18.09 0,6.16 1.45,11.55 3.66,16.17 2.56,4.24 6.21,7.7 10.61,9.6 8.77,3.49 23.04,5.8 44.95,6.16 11.33,0 18.29,0.38 20.84,0.38 13.53,0.77 20.46,3.08 25.57,5.8 5.12,3.05 8.78,9.98 8.78,17.68 0,7.69 -4.73,15.4 -11.68,20.02 -6.57,4.59 -17.18,6.51 -31.07,6.51 -22.68,0 -35.08,-8.44 -35.08,-24.22 0,-6.93 0.74,-8.47 2.17,-12.7l-45.31 0c-1.81,3.85 -4.39,9.24 -4.39,20.02 0,13.47 5.14,24.99 15.37,35 16.8,16.55 44.24,21.17 70.91,21.17 29.23,0 57.38,-6.93 73.82,-25.4 10.23,-11.55 14.98,-24.22 14.98,-40.77 0,-17.71 -5.12,-31.18 -16.09,-41.93 -13.14,-12.7 -28.12,-17.32 -56.64,-17.7l-26.34 -0.38c-5.11,0 -8.02,-1.93 -8.02,-4.62 0,-5.39 6.95,-10 19.38,-16.13 3.66,0.38 5.11,0.38 7.31,0.38 39.84,0 69.06,-24.64 69.06,-58.51 0,-13.06 -3.65,-23.07 -10.96,-32.3 6.21,0.77 8.06,1.15 12.79,1.15 13.53,0 23.76,-4.24 34.37,-14.62l-0.02 -0.01zm-616.08 -322.72l0 0c-61.26,14.98 -102.88,44.29 -102.88,78.03 0,20.87 15.97,40.03 42.61,55.15 -8,-12.81 -12.37,-26.28 -12.37,-40.2 0,-35.08 27.16,-67.33 72.65,-92.98l-0.01 0zm646.22 131.77l0 0c0,-22.11 -13.63,-42.61 -36.81,-59.44 2.08,6.74 3.27,13.64 3.27,20.65 0,63.35 -88.47,117.53 -213.88,140 14.16,1.6 28.9,2.48 44.02,2.48 112.34,0 203.4,-46.41 203.4,-103.68l0 -0.01zm-72.28 -34.44l0 0c0,-23.23 -19.91,-44.76 -53.81,-62.53 7.94,9.62 12.26,19.88 12.26,30.52 0,56.14 -119.63,101.67 -267.18,101.67 -147.53,0 -267.16,-45.53 -267.16,-101.67 0,-7.15 1.95,-14.1 5.61,-20.81 -23.7,15.67 -37.22,33.68 -37.22,52.81 0,60.79 135.98,110.08 303.75,110.08 167.77,0 303.75,-49.3 303.75,-110.08l0 0.01zm-132.68 -2.73l0 0c-61.89,40.01 -252.56,55.1 -334.69,3.8 -64.36,-40.22 -42.28,-103.98 -226.38,-244.48 -24.06,-18.36 4.45,-37.85 22.49,-25.37 18,12.48 1.51,15.81 37.89,52.21 73.43,73.49 72.72,7.42 84.32,32.41 24.39,52.54 78.2,105.46 78.2,105.46 53.92,35.08 96.94,42.72 176.43,-11.05 50.42,-34.13 29.8,54.25 153.44,-9.43 45.09,-23.23 43.22,-7.83 89.05,-71.7 19.03,-26.53 55.41,20.37 14.16,26.89 -16.5,2.61 -44.35,20.65 -56.31,49.17 -16.89,42.15 -9.57,73.35 -38.6,92.1l-0.01 0zm-343.64 -108.05l0 0c-15.29,-6.74 -31.29,-32.77 -37.53,-43.22 17.1,-16.74 10.17,-44.76 0.52,-60.15 -9.65,-15.37 -21.36,-11 -34.2,-25.13 -12.84,-14.13 4.83,-50.98 21.31,-22.65 61.65,106.07 102.11,61.94 152.48,55.62 48.33,-6.07 91.05,20.27 104.18,-54.3 2.14,-12.2 13.99,-15.12 15.2,5.06 1.24,20.15 8.8,69.25 35.35,75.61 26.59,6.32 47.67,-6.24 53.92,-13.2 6.21,-6.95 9.45,-5.96 12.2,11.33 2.72,17.32 9.45,41.21 46.77,14.6 76.33,-54.46 54.46,-75.53 84.13,-89.52 16.91,-7.98 43.52,17.96 5.04,37.41 -55.05,27.83 -60.87,62.39 -95.65,84.33 -58.45,36.93 -40.58,1.49 -134.63,-11.91 -36.21,-5.17 -47.87,35.22 -76.13,23.56 -65.22,-26.94 -110.72,-21.78 -152.95,12.56l-0.01 0zm203.84 -196.61l0 0c2.15,15.92 4.81,15.53 10.53,17.02 5.69,1.45 12.92,-7.5 13.17,-16.2 0.25,-8.72 -3.71,-14.18 -12.31,-13.88 -8.57,0.33 -11.66,4.64 -11.39,13.06l0 0zm283.44 28.98l0 0c6.85,6.68 25.13,2.17 29.39,-2.61 10.94,-12.26 11.32,-19.66 5.69,-27.87 -5.67,-8.19 -17.6,-6.7 -29.42,1.87 -11.8,8.55 -9.57,24.83 -5.67,28.62l0.01 -0.01zm-5.14 80.99l0 0c-5.88,7.81 -6.05,13.33 -1.87,17.65 4.45,4.59 13.69,8.58 20.35,3.27 6.62,-5.25 6.62,-12.92 0.99,-19.68 -5.67,-6.76 -13.36,-6.76 -19.46,-1.24l0 0zm-580.98 -95.76l0 0c8.96,2.75 12.89,11.08 20.46,1.57 3.74,-4.7 4.09,-10.91 -0.85,-17.92 -3.13,-4.37 -17.68,-7.39 -23.87,-1.15 -6.18,6.24 -0.55,16.03 4.26,17.52l-0.01 -0.01zm-179.73 -5.36l0 0c16.06,9.84 26.59,24.74 38.68,11.44 4.07,-4.43 9.16,-12.81 0.38,-28.86 -6.41,-11.74 -27.52,-16.55 -34.97,-12.04 -7.46,4.48 -16.55,21.83 -4.1,29.47l0 -0.01zm148.39 76.16l0 0c5.11,5.31 13.8,4.87 19,2.01 5.17,-2.92 4.1,-10.94 -0.88,-17.95 -3.11,-4.37 -12.37,-6.41 -18.56,-0.17 -6.19,6.24 -3.13,12.4 0.44,16.11l0 0z"/>
   <rect class="fil1" x="0" width="833.33" height="833.33"/>
  </g>
 </g>
</svg>
