<?xml version="1.0" encoding="utf-8"?>
<!-- Generator: Adobe Illustrator 21.1.0, SVG Export Plug-In . SVG Version: 6.00 Build 0)  -->
<svg version="1.1" id="Layer_1" xmlns="http://www.w3.org/2000/svg" xmlns:xlink="http://www.w3.org/1999/xlink" x="0px" y="0px"
	 viewBox="0 0 12 13" style="enable-background:new 0 0 12 13;" xml:space="preserve">
<style type="text/css">
	.st0{fill:#FFFFFF;}
	.st1{fill:#D32F2F;}
	.st2{fill:#D7593F;}
	.st3{fill:#F3C43D;}
	.st4{fill:#429F46;}
	.st5{fill:#BDBDBD;}
	.st6{fill:#ED1C24;}
	.st7{fill:#F15A24;}
	.st8{fill:#F7931E;}
	.st9{fill:#B3B3B3;}
	.st10{fill:none;stroke:#FFFFFF;stroke-width:0.5;stroke-linecap:round;stroke-linejoin:round;stroke-miterlimit:10;}
	.st11{fill:#F2F2F2;}
	.st12{fill:none;stroke:#429F46;stroke-linecap:round;stroke-miterlimit:10;}
</style>
<g>
	<path class="st4" d="M8.6,5.9C8.8,5.5,9,5,9,4.5c0.1-0.9-0.2-1.7-0.8-2.4S6.8,1,6,1C4.1,0.8,2.6,2.2,2.4,4C2.4,4.8,2.6,5.6,3.1,6.2
		c0,0,0,0-0.1,0.1l-2,5.3l2.6-1.2l1.6,2.3L6,9.4l0.8,3.2l1.6-2.3l2.7,1.2L8.6,5.9z M4.8,10.3L3.9,9.1L2.8,9.6l1-2.6
		c0.5,0.3,1,0.5,1.6,0.6L4.8,10.3z M5.5,6.6C4.3,6.5,3.3,5.4,3.4,4.1C3.5,2.9,4.5,2,5.7,2c0.1,0,0.1,0,0.2,0c0.6,0,1.2,0.3,1.6,0.8
		C7.9,3.2,8.1,3.8,8,4.4C7.9,5.7,6.8,6.7,5.5,6.6z M8.1,9.1l-0.8,1.2L6.5,7.5C7,7.3,7.5,7.1,7.9,6.8l1.2,2.8L8.1,9.1z"/>
	<polygon class="st4" points="7.4,3.6 6.2,3.6 5.7,2.2 5.3,3.6 4,3.6 5,4.4 4.6,5.9 5.7,5 6.8,5.8 6.4,4.4 	"/>
</g>
</svg>
