<?xml version="1.0" encoding="utf-8"?>
<!-- Generator: Adobe Illustrator 21.1.0, SVG Export Plug-In . SVG Version: 6.00 Build 0)  -->
<svg version="1.1" id="Layer_1" xmlns="http://www.w3.org/2000/svg" xmlns:xlink="http://www.w3.org/1999/xlink" x="0px" y="0px"
	 viewBox="0 0 10 13" style="enable-background:new 0 0 10 13;" xml:space="preserve">
<style type="text/css">
	.st0{fill:#FFFFFF;}
	.st1{fill:#D32F2F;}
	.st2{fill:#D7593F;}
	.st3{fill:#F3C43D;}
	.st4{fill:#429F46;}
	.st5{fill:#BDBDBD;}
	.st6{fill:#ED1C24;}
	.st7{fill:#F15A24;}
	.st8{fill:#F7931E;}
	.st9{fill:#B3B3B3;}
	.st10{fill:none;stroke:#FFFFFF;stroke-width:0.5;stroke-linecap:round;stroke-linejoin:round;stroke-miterlimit:10;}
	.st11{fill:#F2F2F2;}
	.st12{fill:none;stroke:#429F46;stroke-linecap:round;stroke-miterlimit:10;}
</style>
<g>
	<path class="st4" d="M8,5C8,4.9,8,4.9,8,5l0-1.2C8,2.2,6.6,1,5,1S2,2.3,2,3.8v1.1c0,0,0,0.1,0,0.1H1v7h8V5H8z M3,4.9V3.8
		C3,2.8,3.9,2,5,2c1.1,0,2,0.8,2,1.8v1.1c0,0,0,0.1,0,0.1L3,4.9C3,4.9,3,4.9,3,4.9z M8,11H2V6h6V11z"/>
	<path class="st4" d="M4.5,10.3l2.2-2.5c0.2-0.2,0.2-0.5,0-0.7C6.5,7,6.2,7,6,7.2L4.4,8.9L4,8.5C3.8,8.3,3.5,8.4,3.3,8.6
		C3.1,8.8,3.1,9.1,3.3,9.3L4.5,10.3z"/>
</g>
</svg>
