<?xml version="1.0" encoding="utf-8"?>
<svg viewBox="0 0 500 500" xmlns="http://www.w3.org/2000/svg">
  <path class="cls-1" d="M 492.43 448.705 L 11.516 448.705 L 11.516 412.037 L 492.43 412.037 L 492.43 448.705 Z" style="fill: rgb(64, 190, 70);"/>
  <path class="cls-1" d="M 203.77 161.724 C 203.77 135.497 227.003 114.159 255.583 114.159 C 284.16 114.159 307.361 135.432 307.361 161.724 C 307.361 188.014 284.111 209.272 255.55 209.272 C 226.987 209.272 203.737 187.934 203.737 161.724 M 490.662 150.489 C 489.602 149.226 464.153 119.017 422.23 88.226 C 399.179 71.018 374.136 56.615 347.639 45.323 C 315.9 32.049 284.225 25.346 253.594 25.346 C 222.964 25.346 191.305 32.081 159.467 45.355 C 132.97 56.648 107.928 71.051 84.877 88.257 C 42.986 119.017 17.553 149.258 16.445 150.489 C 9.7 158.523 9.7 170.2 16.445 178.237 C 17.521 179.515 42.955 209.708 84.877 240.516 C 107.932 257.717 132.973 272.119 159.467 283.417 C 191.305 296.693 223.012 303.427 253.594 303.427 C 264.932 303.403 276.251 302.509 287.452 300.756 L 282.19 267.406 C 272.729 268.886 263.169 269.634 253.594 269.64 C 227.525 269.64 200.266 263.796 172.616 252.269 C 148.627 242.037 125.955 228.992 105.079 213.416 C 85.147 198.752 66.571 182.352 49.569 164.412 C 66.575 146.474 85.152 130.075 105.079 115.407 C 125.959 99.835 148.63 86.792 172.616 76.554 C 200.315 65.027 227.508 59.164 253.594 59.164 C 279.68 59.164 306.939 65.027 334.572 76.554 C 358.558 86.792 381.229 99.835 402.108 115.407 C 422.033 130.079 440.609 146.478 457.619 164.412 C 440.622 182.357 422.044 198.758 402.108 213.416 C 390.024 222.352 377.382 230.517 364.258 237.862 L 355.654 242.718 L 338.271 252.43 L 316.568 218.807 C 332.322 203.936 341.28 183.316 341.365 161.724 C 341.365 116.88 302.882 80.423 255.583 80.423 C 208.283 80.423 169.797 116.88 169.797 161.724 C 169.797 206.568 208.283 243.026 255.583 243.026 C 266.656 243.029 279.489 242.006 289.798 237.991 L 327.827 296.741 L 328.298 294.199 L 326.39 296.481 C 333.006 292.903 358.229 279.937 372.274 272.102 L 380.861 267.245 C 395.223 259.187 409.066 250.251 422.31 240.483 C 464.186 209.723 489.635 179.482 490.743 178.253 C 497.482 170.204 497.462 158.515 490.694 150.489 L 490.662 150.489 Z" style="fill: rgb(64, 190, 70);"/>
</svg>