<?xml version="1.0" encoding="UTF-8"?>
<!DOCTYPE svg PUBLIC "-//W3C//DTD SVG 1.0//EN" "http://www.w3.org/TR/2001/REC-SVG-20010904/DTD/svg10.dtd">
<!-- Creator: CorelDRAW 2018 (64-Bit) -->
<svg xmlns="http://www.w3.org/2000/svg" xml:space="preserve" version="1.0" style="shape-rendering:geometricPrecision; text-rendering:geometricPrecision; image-rendering:optimizeQuality; fill-rule:evenodd; clip-rule:evenodd"
viewBox="0 0 1002.96 969.97" xmlns:xlink="http://www.w3.org/1999/xlink">
 <defs>
  <style type="text/css">
   <![CDATA[
    .fil0 {fill:#40BE46;fill-rule:nonzero}
   ]]>
  </style>
 </defs>
 <g id="Layer_x0020_1">
  <metadata id="CorelCorpID_0Corel-Layer"/>
  <path class="fil0" d="M445.49 636.58l-52.78 14.79c4.83,13.43 8.34,37.52 8.34,69.49l0 158.34 58.97 0 0 -167.6c10.98,-13.43 22.86,-19.92 36.07,-19.92 6.58,0 11.42,1.39 17.17,4.63l16.25 -54.63c-9.23,-4.17 -13.2,-5.1 -22.01,-5.1 -6.58,0 -14.49,1.39 -19.36,3.71 -10.98,5.56 -25.05,18.03 -33.42,30.08 -0.86,-13.44 -3.97,-24.06 -9.23,-33.79zm-204.73 -78.26l0 0 -6.42 0 0 320.88 61.61 0 0 -142.16 77.83 0 0 -52.78 -77.83 0 0 -73.63 97.19 0 3.77 -28.03c-58.44,-4.47 -111.51,-13.86 -156.15,-24.29zm-144.31 363.46l0 0 28.59 33.36c27.7,-11.12 62.44,-36.14 71.28,-75.48 3.08,-12.94 4.37,-21.31 4.37,-62.97l0 -257.64 -62.44 0 0 264.59c0,34.71 -1.32,47.68 -6.16,59.26 -5.72,12.97 -19.82,28.72 -35.64,38.88zm561.01 -162.51l0 0c0,56.02 -10.99,80.08 -36.5,80.08 -11.45,0 -24.65,-6.45 -29.91,-19.42 -4.83,-12.04 -7.48,-32.43 -7.48,-59.73 0,-23.63 2.18,-40.27 6.15,-52.78 4.83,-14.82 16.28,-24.09 30.34,-24.09 10.56,0 19.79,4.63 25.51,12.51 7.91,10.66 11.88,31.5 11.88,63.44zm36.07 92.15l0 0c19.36,-23.16 28.16,-50.96 28.16,-91.69 0,-38.45 -7.94,-64.36 -25.98,-86.6 -19.32,-24.06 -44.41,-35.64 -76.54,-35.64 -60.69,0 -101.16,49.54 -101.16,124.09 0,74.55 40.01,122.7 101.16,122.7 34.78,0 57.21,-12.51 74.36,-32.86zm168.92 -132.92l0 0c0,21.77 -12.77,33.82 -36.07,33.82 -20.68,0 -34.78,-9.73 -34.78,-33.82 0,-22.2 12.77,-35.18 35.21,-35.18 22.44,0 35.64,12.97 35.64,35.18zm104.24 -50.46l0 0 -24.62 -39.34c-13.63,12.97 -30.38,20.38 -46.62,20.38 -7.48,0 -11.45,-0.96 -27.73,-5.09 -16.28,-4.63 -27.7,-6.02 -40.47,-6.02 -57.64,0 -95,31.47 -95,80.11 0,35.18 15.82,56.95 48.38,65.75 -13.2,3.24 -27.73,10.16 -34.31,18.03 -4.83,5.56 -7.05,12.97 -7.05,21.77 0,7.41 1.75,13.9 4.4,19.46 3.08,5.1 7.48,9.27 12.77,11.55 10.56,4.2 27.73,6.98 54.1,7.41 13.63,0 22.01,0.46 25.08,0.46 16.28,0.93 24.62,3.71 30.77,6.98 6.16,3.67 10.56,12.01 10.56,21.28 0,9.26 -5.69,18.53 -14.06,24.09 -7.91,5.53 -20.68,7.84 -37.39,7.84 -27.3,0 -42.22,-10.16 -42.22,-29.15 0,-8.34 0.89,-10.19 2.61,-15.29l-54.53 0c-2.18,4.63 -5.29,11.12 -5.29,24.09 0,16.21 6.19,30.08 18.5,42.12 20.22,19.92 53.24,25.48 85.34,25.48 35.18,0 69.06,-8.34 88.85,-30.57 12.31,-13.9 18.03,-29.15 18.03,-49.07 0,-21.31 -6.16,-37.52 -19.36,-50.46 -15.82,-15.29 -33.85,-20.85 -68.17,-21.31l-31.7 -0.46c-6.15,0 -9.66,-2.32 -9.66,-5.56 0,-6.49 8.37,-12.04 23.33,-19.42 4.4,0.46 6.15,0.46 8.8,0.46 47.95,0 83.12,-29.65 83.12,-70.42 0,-15.72 -4.4,-27.76 -13.2,-38.88 7.48,0.93 9.7,1.39 15.39,1.39 16.28,0 28.59,-5.1 41.37,-17.6zm-741.48 -388.41l0 0c-73.73,18.03 -123.82,53.31 -123.82,93.91 0,25.12 19.22,48.18 51.29,66.38 -9.63,-15.42 -14.89,-31.63 -14.89,-48.38 0,-42.22 32.69,-81.04 87.43,-111.91zm777.75 158.6l0 0c0,-26.61 -16.41,-51.29 -44.31,-71.54 2.51,8.11 3.94,16.41 3.94,24.85 0,76.24 -106.48,141.46 -257.41,168.5 17.04,1.92 34.78,2.98 52.98,2.98 135.21,0 244.8,-55.86 244.8,-124.78zm-86.99 -41.46l0 0c0,-27.96 -23.96,-53.87 -64.76,-75.25 9.56,11.58 14.76,23.92 14.76,36.73 0,67.57 -143.98,122.37 -321.57,122.37 -177.56,0 -321.54,-54.8 -321.54,-122.37 0,-8.6 2.35,-16.97 6.75,-25.05 -28.52,18.86 -44.8,40.54 -44.8,63.56 0,73.16 163.66,132.49 365.58,132.49 201.92,0 365.58,-59.33 365.58,-132.49zm-159.69 -3.28l0 0c-74.49,48.15 -303.97,66.31 -402.81,4.57 -77.46,-48.41 -50.89,-125.15 -272.46,-294.24 -28.96,-22.1 5.36,-45.56 27.07,-30.54 21.67,15.02 1.82,19.03 45.6,62.84 88.38,88.45 87.52,8.93 101.49,39.01 29.35,63.24 94.11,126.93 94.11,126.93 64.89,42.22 116.67,51.42 212.34,-13.3 60.69,-41.07 35.87,65.29 184.68,-11.35 54.27,-27.96 52.02,-9.43 107.18,-86.3 22.9,-31.93 66.68,24.52 17.04,32.36 -19.85,3.14 -53.37,24.85 -67.77,59.17 -20.32,50.73 -11.52,88.28 -46.46,110.85zm-413.59 -130.04l0 0c-18.4,-8.11 -37.66,-39.44 -45.17,-52.02 20.58,-20.15 12.24,-53.87 0.63,-72.4 -11.61,-18.5 -25.71,-13.24 -41.16,-30.25 -15.45,-17.01 5.82,-61.35 25.65,-27.26 74.19,127.66 122.9,74.55 183.52,66.94 58.17,-7.31 109.59,24.39 125.38,-65.35 2.58,-14.69 16.84,-18.2 18.3,6.09 1.49,24.25 10.59,83.35 42.55,91 32,7.61 57.38,-7.51 64.89,-15.88 7.48,-8.37 11.38,-7.18 14.69,13.63 3.27,20.85 11.38,49.6 56.29,17.57 91.86,-65.55 65.55,-90.9 101.25,-107.74 20.35,-9.6 52.38,21.61 6.06,45.03 -66.25,33.49 -73.26,75.08 -115.12,101.49 -70.35,44.44 -48.84,1.79 -162.04,-14.33 -43.58,-6.22 -57.61,42.39 -91.63,28.36 -78.49,-32.43 -133.25,-26.21 -184.08,15.12zm245.33 -236.63l0 0c2.58,19.16 5.79,18.69 12.67,20.48 6.85,1.75 15.55,-9.03 15.85,-19.49 0.3,-10.49 -4.47,-17.07 -14.82,-16.71 -10.32,0.4 -14.03,5.59 -13.7,15.72zm341.13 34.88l0 0c8.24,8.04 30.24,2.61 35.37,-3.14 13.17,-14.76 13.63,-23.66 6.85,-33.55 -6.82,-9.86 -21.18,-8.07 -35.41,2.25 -14.2,10.29 -11.52,29.88 -6.82,34.45zm-6.19 97.48l0 0c-7.08,9.4 -7.28,16.05 -2.25,21.24 5.36,5.53 16.48,10.33 24.49,3.94 7.97,-6.32 7.97,-15.55 1.19,-23.69 -6.82,-8.14 -16.08,-8.14 -23.43,-1.49zm-699.23 -115.25l0 0c10.79,3.31 15.52,13.34 24.62,1.89 4.5,-5.66 4.93,-13.13 -1.02,-21.57 -3.77,-5.26 -21.28,-8.9 -28.72,-1.39 -7.44,7.51 -0.66,19.29 5.13,21.08zm-216.31 -6.45l0 0c19.33,11.84 32,29.78 46.56,13.77 4.9,-5.33 11.02,-15.42 0.46,-34.74 -7.71,-14.13 -33.12,-19.92 -42.09,-14.49 -8.97,5.39 -19.92,26.27 -4.93,35.47zm178.59 91.66l0 0c6.15,6.39 16.61,5.86 22.87,2.42 6.22,-3.51 4.93,-13.17 -1.06,-21.61 -3.74,-5.26 -14.89,-7.71 -22.34,-0.2 -7.44,7.51 -3.77,14.92 0.53,19.39z"/>
 </g>
</svg>
