<svg width="14" height="15" viewBox="0 0 14 15" fill="none" xmlns="http://www.w3.org/2000/svg">
<g clip-path="url(#clip0_3935_168696)">
<path d="M10.41 13.8384C10.7724 14.192 11.2587 14.39 11.765 14.39C12.2714 14.39 12.7576 14.192 13.12 13.8384C13.2996 13.6624 13.4423 13.4524 13.5397 13.2206C13.6371 12.9887 13.6873 12.7398 13.6873 12.4884C13.6873 12.2369 13.6371 11.988 13.5397 11.7562C13.4423 11.5244 13.2996 11.3143 13.12 11.1384V11.0584L10.12 8.05838L7.37 10.8084L10.41 13.8384Z" fill="#3387A1"/>
<path d="M7.86998 3.60836C7.69006 2.91539 7.32746 2.28341 6.81999 1.77838C6.40265 1.37852 5.90511 1.07186 5.36034 0.878779C4.81556 0.685694 4.23599 0.61056 3.65999 0.65835C3.58402 0.665448 3.51143 0.693121 3.45 0.738367C3.39055 0.784897 3.34547 0.847294 3.31999 0.91836C3.29483 0.989535 3.29483 1.06719 3.31999 1.13836C3.3326 1.21061 3.36758 1.27707 3.42 1.32836L4.86998 2.76837C4.96461 2.86257 5.03942 2.97477 5.08998 3.09835C5.14252 3.22168 5.16974 3.35432 5.17 3.48837C5.16974 3.62242 5.14252 3.75503 5.08998 3.87835C5.03806 4.00121 4.96342 4.11319 4.86998 4.20837L3.58998 5.48837C3.49577 5.583 3.38358 5.6578 3.26 5.70837C3.13667 5.76091 3.00403 5.7881 2.86998 5.78836C2.73593 5.7881 2.60332 5.76091 2.48 5.70837C2.35714 5.65645 2.24519 5.58181 2.15001 5.48837L0.710008 4.03836C0.653602 3.98756 0.584474 3.953 0.509995 3.93835C0.435391 3.9132 0.354589 3.9132 0.279984 3.93835C0.207672 3.96656 0.145137 4.01522 0.0999918 4.07836C0.0563353 4.13987 0.0319606 4.21296 0.0299845 4.28836C-0.0275449 4.91349 0.0628779 5.54339 0.293931 6.1271C0.524984 6.71081 0.890197 7.23197 1.36 7.64837C1.86581 8.09683 2.47899 8.40686 3.14 8.54837C3.40242 8.60843 3.67078 8.63862 3.93999 8.63836L8.01 4.60836C8.00875 4.27023 7.96164 3.93383 7.86998 3.60836Z" fill="#3387A1"/>
<path d="M13.34 2.04838C13.2283 1.93704 13.0957 1.84882 12.9499 1.78877C12.804 1.72871 12.6478 1.69799 12.49 1.69838C12.332 1.69572 12.175 1.72541 12.0289 1.78559C11.8827 1.84578 11.7504 1.9352 11.64 2.04838L7.89001 5.79838L5.14001 8.54838L1.01001 12.6084C0.898443 12.719 0.809883 12.8506 0.749451 12.9957C0.689018 13.1407 0.657898 13.2963 0.657898 13.4534C0.657898 13.6105 0.689018 13.7661 0.749451 13.9111C0.809883 14.0561 0.898443 14.1878 1.01001 14.2984C1.11987 14.4129 1.25188 14.5039 1.39801 14.5657C1.54414 14.6276 1.70133 14.6591 1.86002 14.6584C2.01853 14.658 2.17538 14.626 2.32135 14.5642C2.46732 14.5023 2.59946 14.412 2.71002 14.2984L6.79001 10.2184L9.54001 7.46836L13.3 3.70838C13.5172 3.489 13.6423 3.19492 13.6497 2.88633C13.6571 2.57774 13.5463 2.27797 13.34 2.04838Z" fill="#3387A1"/>
</g>
<defs>
<clipPath id="clip0_3935_168696">
<rect width="13.69" height="14.01" fill="white" transform="translate(0 0.668365)"/>
</clipPath>
</defs>
</svg>
